# xmcd
#
# Track frame offsets:
#	150
#	14965
#	28255
#	41606
#	56384
#	71156
#	85079
#	93317
#	104371
#	118724
#	138349
#	148896
#	161124
#	175151
#
# Disc length: 2521 seconds
#
# Revision: 2
# Processed by: cddbd v1.4PL0 Copyright (c) Steve Scherf et al.
# Submitted via: EZCDDA 4.3.2
#
DISCID=cb09d70e
DTITLE=цкуйеяиа - ои епитувиес лоу
DYEAR=1900
DGENRE=
TTITLE0=ав, ас лпояоуса
TTITLE1=ле лпоуматсес йаи лпожояиа
TTITLE2=та пемтовикиаяа
TTITLE3=тяацоуди аисхглатийо
TTITLE4=йаи факистгйа
TTITLE5=лгм йамеис омеияа тяака
TTITLE6=то виоми
TTITLE7=ма 'ва оса евеи г тяапефа
TTITLE8=тоу йослоу ои пасвакиес
TTITLE9=лама лоу еимаи г аматокг
TTITLE10=паяапомайи лоу
TTITLE11=пгяе т' омеияо о йаияос
TTITLE12=аутг тг мувта
TTITLE13=баке ле стгм ацйакиа соу
EXTD=
EXTT0=
EXTT1=
EXTT2=
EXTT3=
EXTT4=
EXTT5=
EXTT6=
EXTT7=
EXTT8=
EXTT9=
EXTT10=
EXTT11=
EXTT12=
EXTT13=
PLAYORDER=
